<?xml version="1.0" encoding="UTF-8" standalone="no"?>
<!-- Created with Inkscape (http://www.inkscape.org/) -->

<svg
   xmlns:dc="http://purl.org/dc/elements/1.1/"
   xmlns:cc="http://creativecommons.org/ns#"
   xmlns:rdf="http://www.w3.org/1999/02/22-rdf-syntax-ns#"
   xmlns:svg="http://www.w3.org/2000/svg"
   xmlns="http://www.w3.org/2000/svg"
   xmlns:sodipodi="http://sodipodi.sourceforge.net/DTD/sodipodi-0.dtd"
   xmlns:inkscape="http://www.inkscape.org/namespaces/inkscape"
   width="150.02026mm"
   height="107.63439mm"
   viewBox="0 0 150.02026 107.63439"
   version="1.1"
   id="svg8"
   inkscape:version="0.92.4 (5da689c313, 2019-01-14)"
   sodipodi:docname="rpp_logo.svg"
   inkscape:export-filename="C:\django\Read Praxis Project\ReadPraxisProject\polls\static\images\rpp_logo.png"
   inkscape:export-xdpi="95.57354"
   inkscape:export-ydpi="95.57354">
  <defs
     id="defs2" />
  <sodipodi:namedview
     id="base"
     pagecolor="#ffffff"
     bordercolor="#666666"
     borderopacity="1.0"
     inkscape:pageopacity="0.0"
     inkscape:pageshadow="2"
     inkscape:zoom="0.7"
     inkscape:cx="295.64657"
     inkscape:cy="192.57303"
     inkscape:document-units="mm"
     inkscape:current-layer="layer1"
     showgrid="false"
     inkscape:window-width="1366"
     inkscape:window-height="705"
     inkscape:window-x="-8"
     inkscape:window-y="-8"
     inkscape:window-maximized="1"
     fit-margin-top="0"
     fit-margin-left="0"
     fit-margin-right="0"
     fit-margin-bottom="0" />
  <metadata
     id="metadata5">
    <rdf:RDF>
      <cc:Work
         rdf:about="">
        <dc:format>image/svg+xml</dc:format>
        <dc:type
           rdf:resource="http://purl.org/dc/dcmitype/StillImage" />
        <dc:title></dc:title>
      </cc:Work>
    </rdf:RDF>
  </metadata>
  <g
     inkscape:label="Capa 1"
     inkscape:groupmode="layer"
     id="layer1"
     transform="translate(-31.642112,-58.73694)">
    <g
       id="g1098"
       transform="matrix(0.30477438,0,0,0.30477438,43.759002,49.661036)"
       style="fill:#241c1c;stroke-width:0.86812854">
      <g
         id="g1041"
         style="fill:#241c1c;stroke-width:0.86812854">
	<g
   id="g1039"
   style="fill:#241c1c;stroke-width:0.86812854">
		<path
   id="path1037"
   d="m 404.72,82.944 c -0.027,0 -0.054,0 -0.08,0 v 0 h -27.12 v -9.28 c 0.146,-3.673 -2.23,-6.974 -5.76,-8 -18.828,-4.934 -38.216,-7.408 -57.68,-7.36 -32,0 -75.6,7.2 -107.84,40 -32,-33.12 -75.92,-40 -107.84,-40 -19.464,-0.048 -38.852,2.426 -57.68,7.36 -3.53,1.026 -5.906,4.327 -5.76,8 v 9.2 H 8 c -4.418,0 -8,3.582 -8,8 v 255.52 c 0,4.418 3.582,8 8,8 1.374,-0.004 2.724,-0.362 3.92,-1.04 0.8,-0.4 80.8,-44.16 192.48,-16 h 1.2 0.72 c 0.638,0.077 1.282,0.077 1.92,0 112,-28.4 192,15.28 192.48,16 2.475,1.429 5.525,1.429 8,0 2.46,-1.42 3.983,-4.039 4,-6.88 V 90.944 c 0,-4.418 -3.581,-8 -8,-8 z M 16,333.664 V 98.944 h 19.12 v 200.64 c -0.05,4.418 3.491,8.04 7.909,8.09 0.432,0.005 0.864,-0.025 1.291,-0.09 16.55,-2.527 33.259,-3.864 50,-4 23.19,-0.402 46.283,3.086 68.32,10.32 -49.765,-6.018 -100.243,0.784 -146.64,19.76 z m 78.32,-46 c -14.551,0.033 -29.085,0.968 -43.52,2.8 V 79.984 c 15.576,-3.47 31.482,-5.241 47.44,-5.28 29.92,0 71.2,6.88 99.84,39.2 l 0.24,199.28 c -16.64,-10.88 -49.12,-25.52 -104,-25.52 z m 120,-173.76 c 28.64,-32 69.92,-39.2 99.84,-39.2 15.957,0.047 31.863,1.817 47.44,5.28 v 210.48 c -14.354,-1.849 -28.808,-2.811 -43.28,-2.88 -54.56,0 -87.12,14.64 -104,25.52 z m 182.32,219.76 c -46.496,-19.028 -97.09,-25.831 -146.96,-19.76 22.141,-7.26 45.344,-10.749 68.64,-10.32 16.846,0.094 33.663,1.404 50.32,3.92 4.368,0.663 8.447,-2.341 9.11,-6.709 0.065,-0.427 0.095,-0.859 0.09,-1.291 V 98.944 h 19.12 z"
   inkscape:connector-curvature="0"
   style="fill:#241c1c;stroke-width:0.86812854" />

	</g>

</g>
      <g
         id="g1043"
         style="fill:#241c1c;stroke-width:0.86812854">
</g>
      <g
         id="g1045"
         style="fill:#241c1c;stroke-width:0.86812854">
</g>
      <g
         id="g1047"
         style="fill:#241c1c;stroke-width:0.86812854">
</g>
      <g
         id="g1049"
         style="fill:#241c1c;stroke-width:0.86812854">
</g>
      <g
         id="g1051"
         style="fill:#241c1c;stroke-width:0.86812854">
</g>
      <g
         id="g1053"
         style="fill:#241c1c;stroke-width:0.86812854">
</g>
      <g
         id="g1055"
         style="fill:#241c1c;stroke-width:0.86812854">
</g>
      <g
         id="g1057"
         style="fill:#241c1c;stroke-width:0.86812854">
</g>
      <g
         id="g1059"
         style="fill:#241c1c;stroke-width:0.86812854">
</g>
      <g
         id="g1061"
         style="fill:#241c1c;stroke-width:0.86812854">
</g>
      <g
         id="g1063"
         style="fill:#241c1c;stroke-width:0.86812854">
</g>
      <g
         id="g1065"
         style="fill:#241c1c;stroke-width:0.86812854">
</g>
      <g
         id="g1067"
         style="fill:#241c1c;stroke-width:0.86812854">
</g>
      <g
         id="g1069"
         style="fill:#241c1c;stroke-width:0.86812854">
</g>
      <g
         id="g1071"
         style="fill:#241c1c;stroke-width:0.86812854">
</g>
    </g>
    <path
       style="font-style:normal;font-variant:normal;font-weight:bold;font-stretch:normal;font-size:74.66666412px;line-height:1.25;font-family:Bahnschrift;-inkscape-font-specification:'Bahnschrift Bold';letter-spacing:0px;word-spacing:0px;fill:#000080;fill-opacity:1;stroke:none;stroke-width:0.26458335"
       d="m 97.878492,101.749 c 0.172335,0.2187 0.344444,0.43526 0.518467,0.66043 1.251706,1.66865 2.911021,4.21433 4.967561,7.61472 h 4.85093 c 1.39687,0 2.61219,0.24041 3.64588,0.72104 1.06162,0.45973 1.87171,1.12813 2.43044,2.00579 0.5867,0.85676 0.88003,1.84955 0.88003,2.97798 0,1.10751 -0.29333,2.08966 -0.88003,2.94641 -0.58668,0.85676 -1.41075,1.52518 -2.47237,2.0058 -1.03369,0.45972 -2.23502,0.68991 -3.60395,0.68991 H 94.973165 v -7.51467 c -1.593173,-2.38959 -3.117996,-4.5142 -4.575302,-6.37604 H 83.49091 v 2.59858 a 4.8090505,4.8090505 0 0 1 4.582772,4.7982 4.8090505,4.8090505 0 0 1 -4.582772,4.80112 v 27.64649 h 11.482255 v -17.67855 h 12.948805 c 3.79947,0 7.13815,-0.57502 10.01568,-1.72434 2.90548,-1.14932 5.15429,-2.76874 6.74672,-4.85841 1.17104,-1.55206 1.91012,-3.28552 2.21999,-5.19921 h -6.41629 c -1.33506,0 -2.4097,-1.07463 -2.4097,-2.40968 v -11.89239 c -0.0472,-0.019 -0.0932,-0.0389 -0.14072,-0.0577 -2.87753,-1.17022 -6.21621,-1.7555 -10.01568,-1.7555 z"
       id="path833"
       inkscape:connector-curvature="0" />
    <flowRoot
       xml:space="preserve"
       id="flowRoot838"
       style="font-style:normal;font-variant:normal;font-weight:normal;font-stretch:normal;font-size:64px;line-height:1.25;font-family:'Segoe Print';-inkscape-font-specification:'Segoe Print';letter-spacing:0px;word-spacing:0px;fill:#ff6600;fill-opacity:1;stroke:none;stroke-width:0.36590344"
       transform="matrix(0.78367744,-0.09069354,0.07619313,0.65838024,-229.3492,62.514894)"><flowRegion
         id="flowRegion840"
         style="font-style:normal;font-variant:normal;font-weight:normal;font-stretch:normal;font-size:64px;font-family:'Segoe Print';-inkscape-font-specification:'Segoe Print';fill:#ff6600;fill-opacity:1;stroke-width:0.36590344"><rect
           id="rect842"
           width="191.42857"
           height="228.57143"
           x="425.71429"
           y="85.376831"
           style="font-style:normal;font-variant:normal;font-weight:normal;font-stretch:normal;font-size:64px;font-family:'Segoe Print';-inkscape-font-specification:'Segoe Print';fill:#ff6600;fill-opacity:1;stroke-width:0.36590344" /></flowRegion><flowPara
         id="flowPara844"
         style="fill:#ff6600;fill-opacity:1;stroke-width:0.36590344">P</flowPara></flowRoot>    <flowRoot
       transform="matrix(0.69918876,0,0,0.75221147,-65.790616,-73.02497)"
       style="font-style:normal;font-variant:normal;font-weight:bold;font-stretch:normal;font-size:96px;line-height:2.25;font-family:'Courier New';-inkscape-font-specification:'Courier New Bold';text-align:start;letter-spacing:0px;word-spacing:0px;text-anchor:start;fill:#366605;fill-opacity:1;stroke:none;stroke-width:0.36483395"
       id="flowRoot864"
       xml:space="preserve"><flowRegion
         style="font-style:normal;font-variant:normal;font-weight:bold;font-stretch:normal;font-size:96px;line-height:2.25;font-family:'Courier New';-inkscape-font-specification:'Courier New Bold';text-align:start;text-anchor:start;fill:#366605;fill-opacity:1;stroke-width:0.07935393"
         id="flowRegion860"><rect
           style="font-style:normal;font-variant:normal;font-weight:bold;font-stretch:normal;font-size:96px;line-height:2.25;font-family:'Courier New';-inkscape-font-specification:'Courier New Bold';text-align:start;text-anchor:start;fill:#366605;fill-opacity:1;stroke-width:0.36483395"
           y="122.51968"
           x="188.57143"
           height="247.14285"
           width="252.85715"
           id="rect858" /></flowRegion><flowPara
         style="fill:#366605;fill-opacity:1;stroke-width:0.36483395"
         id="flowPara862">R</flowPara></flowRoot>    <text
       xml:space="preserve"
       style="font-style:normal;font-variant:normal;font-weight:normal;font-stretch:normal;font-size:12.71075535px;line-height:1.25;font-family:Bahnschrift;-inkscape-font-specification:Bahnschrift;letter-spacing:0px;word-spacing:0px;fill:#000000;fill-opacity:1;stroke:none;stroke-width:0.26458332"
       x="51.49379"
       y="163.81775"
       id="text1102"><tspan
         sodipodi:role="line"
         id="tspan1100"
         x="51.49379"
         y="163.81775"
         style="font-style:normal;font-variant:normal;font-weight:normal;font-stretch:normal;font-size:12.71075535px;font-family:Bahnschrift;-inkscape-font-specification:Bahnschrift;stroke-width:0.26458332">Read Praxis Project</tspan></text>
  </g>
</svg>
